HIERARCHY
ROOT ui
{
	 OFFSET 0 0 0
	 CHANNELS 3 XPosition YPosition Z Position
	 EndSite
	 {
	 OFFSET 0 -1 0
	 }
}
ROOT li
{
	 OFFSET 0 0 0
	 CHANNELS 3 XPosition YPosition Z Position
	 EndSite
	 {
	 OFFSET 0 -1 0
	 }
}
ROOT ul
{
	 OFFSET 0 0 0
	 CHANNELS 3 XPosition YPosition Z Position
	 EndSite
	 {
	 OFFSET 0 -1 0
	 }
}
ROOT ll
{
	 OFFSET 0 0 0
	 CHANNELS 3 XPosition YPosition Z Position
	 EndSite
	 {
	 OFFSET 0 -1 0
	 }
}
ROOT tt
{
	 OFFSET 0 0 0
	 CHANNELS 3 XPosition YPosition Z Position
	 EndSite
	 {
	 OFFSET 0 -1 0
	 }
}
ROOT tb
{
	 OFFSET 0 0 0
	 CHANNELS 3 XPosition YPosition Z Position
	 EndSite
	 {
	 OFFSET 0 -1 0
	 }
}
ROOT td
{
	 OFFSET 0 0 0
	 CHANNELS 3 XPosition YPosition Z Position
	 EndSite
	 {
	 OFFSET 0 -1 0
	 }
}
ROOT v
{
	 OFFSET 0 0 0
	 CHANNELS 3 XPosition YPosition Z Position
	 EndSite
	 {
	 OFFSET 0 -1 0
	 }
}
ROOT bn
{
	 OFFSET 0 0 0
	 CHANNELS 3 XPosition YPosition Z Position
	 EndSite
	 {
	 OFFSET 0 -1 0
	 }
}
MOTION
Frames: 16
Frame Time: 0.002
0.004337818145751953	1.1732900142669677E-4	0		0.4686747131347656	-2.448895751953125	0		-0.9776640014648438	0.24544648742675781	0		-0.5550982055664062	-2.18504150390625	0		1.77605078125	-0.9911698608398437	0		3.253337890625	-0.578656005859375	0		4.78441796875	-0.5818490600585937	0		5.8895498046875	0.27594851684570315	0		-0.20766773986816406	5.90423876953125	0		
0.0015279400348663331	-0.0032225449085235597	0		0.4399098815917969	-2.447911376953125	0		-1.0463802490234375	0.24993646240234374	0		-0.6027730102539063	-2.17681640625	0		1.775062255859375	-1.0085388793945314	0		3.250501220703125	-0.5840051879882813	0		4.79641748046875	-0.6003898315429688	0		5.877685546875	0.2946624755859375	0		-0.3737610168457031	5.8779453125	0		
-0.0031436729431152345	0.0014600650072097779	0		0.47806912231445314	-2.457764892578125	0		-0.9680718994140625	0.2525746307373047	0		-0.5875377807617187	-2.18038623046875	0		1.775093505859375	-1.0279100341796874	0		3.27742822265625	-0.611708251953125	0		4.7866982421875	-0.5996251220703125	0		5.895642578125	0.2813950805664063	0		-0.37253173828125	5.8765517578125	0		
0.005133691787719726	-0.0010210959911346436	0		0.45548681640625	-2.450853515625	0		-1.0326661376953126	0.2609970703125	0		-0.5831626586914063	-2.17682373046875	0		1.793380615234375	-1.0304981689453125	0		3.28596240234375	-0.5941574096679687	0		4.80698095703125	-0.6022075805664062	0		5.89951513671875	0.29803091430664064	0		-0.3732761840820312	5.87717919921875	0		
0.00547417688369751	-0.0014028300046920775	0		0.47877706909179685	-2.45851513671875	0		-0.9683348388671875	0.2597982177734375	0		-0.5868370971679687	-2.18116455078125	0		1.78357568359375	-1.0437252197265625	0		3.26486376953125	-0.6302212524414063	0		4.80119384765625	-0.6134367065429688	0		5.89610302734375	0.28034371948242187	0		-0.33994464111328127	5.8833779296875	0		
9.139090180397034E-4	0.0032775781154632568	0		0.4512087097167969	-2.458537109375	0		-1.03195849609375	0.2601949462890625	0		-0.601375	-2.178371826171875	0		1.8345963134765626	-1.074703369140625	0		3.294226806640625	-0.6328951416015625	0		4.801583984375	-0.6137158203125	0		5.90002880859375	0.29709295654296874	0		-0.33969354248046874	5.8829892578125	0		
-0.001711858034133911	-6.571999937295914E-5	0		0.47562106323242187	-2.464204833984375	0		-0.9643971557617188	0.2719508361816406	0		-0.59100634765625	-2.186892578125	0		1.79198974609375	-1.0784996337890624	0		3.282506591796875	-0.6450384521484375	0		4.81377392578125	-0.63311767578125	0		5.888296875	0.3161003112792969	0		-0.34042523193359375	5.883611328125	0		
0.0017690060138702392	0.0025171029567718508	0		0.4501810607910156	-2.46124658203125	0		-1.0220319213867188	0.2662624816894531	0		-0.5904942626953125	-2.187290771484375	0		1.8363519287109376	-1.0883695068359376	0		3.28900732421875	-0.6423904418945312	0		4.81731201171875	-0.6273848876953125	0		5.90638232421875	0.30311602783203123	0		-0.3742245178222656	5.87864453125	0		
0.0022426819801330566	0.0021390419006347655	0		0.4807649230957031	-2.459980712890625	0		-1.0175183715820313	0.269798095703125	0		-0.5879180297851563	-2.18571484375	0		1.8117176513671875	-1.10037158203125	0		3.292218505859375	-0.6656868896484375	0		4.82780712890625	-0.6277153930664062	0		5.90306787109375	0.28563604736328124	0		-0.3739600524902344	5.8782529296875	0		
0.007681459903717041	-0.003299118995666504	0		0.4513414916992188	-2.461967529296875	0		-1.0238546142578124	0.28346612548828126	0		-0.5533819580078125	-2.19053466796875	0		1.8471856689453126	-1.107108154296875	0		3.312769287109375	-0.6641798706054688	0		4.81119873046875	-0.6386891479492187	0		5.9070810546875	0.3025845642089844	0		-0.33963397216796876	5.88244091796875	0		
2.3159800469875336E-4	-0.0015764009952545165	0		0.4779356689453125	-2.4656435546875	0		-0.9533968505859375	0.2781837463378906	0		-0.5927947387695313	-2.1934423828125	0		1.8085897216796876	-1.1209217529296875	0		3.298115234375	-0.68122412109375	0		4.8327373046875	-0.64011181640625	0		5.9074580078125	0.3023861083984375	0		-0.3403556213378906	5.88306201171875	0		
0.003812298059463501	0.0010114409923553467	0		0.45061285400390627	-2.46465234375	0		-1.0228118896484375	0.2826206970214844	0		-0.5690977172851562	-2.19012841796875	0		1.8500252685546874	-1.1347115478515626	0		3.301532470703125	-0.6944762573242188	0		4.818203125	-0.6490697021484375	0		5.90068994140625	0.2972542724609375	0		-0.37316595458984375	5.87707568359375	0		
0.006272449970245362	-0.007386303901672363	0		0.4611892395019531	-2.474124267578125	0		-1.013171630859375	0.2900825500488281	0		-0.585619140625	-2.20632373046875	0		1.8075115966796875	-1.1454630126953125	0		3.31983251953125	-0.7188955078125	0		4.82468505859375	-0.6582642211914063	0		5.9188857421875	0.28969631958007813	0		-0.4060107727050781	5.86908544921875	0		
0.016959161758422853	0.002119434118270874	0		0.4669798889160156	-2.46753173828125	0		-1.0075743408203126	0.2935916442871094	0		-0.545906982421875	-2.205203369140625	0		1.836079345703125	-1.1510726318359374	0		3.302731689453125	-0.6948624877929688	0		4.8293603515625	-0.6524117431640625	0		5.9137080078125	0.3140231628417969	0		-0.3386253356933594	5.880875	0		
0.005500246047973633	-1.0361500084400177E-4	0		0.4807076416015625	-2.467029541015625	0		-1.0070279541015625	0.2931601867675781	0		-0.5971664428710938	-2.201977783203125	0		1.812656005859375	-1.1560382080078124	0		3.2919892578125	-0.7238931274414062	0		4.84687939453125	-0.6596884155273437	0		5.91411376953125	0.31401840209960935	0		-0.3734691467285156	5.876908203125	0		
-0.07092837524414063	0.0014576940536499023	0		0.4783790283203125	-2.471325927734375	0		-0.9384506225585938	0.295909912109375	0		-0.5326138916015625	-2.2151513671875	0		1.8331055908203124	-1.1715208740234375	0		3.297627197265625	-0.7210974731445312	0		4.83341796875	-0.6645594482421875	0		5.917484375	0.33821240234375	0		-0.22210401916503905	5.892701171875	0		
